<svg width="23" height="23" viewBox="0 0 23 23" fill="none" xmlns="http://www.w3.org/2000/svg">
<g id="request_page_24dp_5F6368_FILL0_wght400_GRAD0_opsz24 1">
<path id="Vector" d="M10.2072 17.2137H12.0403V16.2971H12.9569C13.2166 16.2971 13.4343 16.2093 13.6099 16.0336C13.7856 15.8579 13.8734 15.6402 13.8734 15.3805V12.6309C13.8734 12.3712 13.7856 12.1535 13.6099 11.9778C13.4343 11.8021 13.2166 11.7143 12.9569 11.7143H10.2072V10.7977H13.8734V8.96461H12.0403V8.04805H10.2072V8.96461H9.29064C9.03094 8.96461 8.81326 9.05245 8.63758 9.22812C8.46191 9.4038 8.37407 9.62148 8.37407 9.88118V12.6309C8.37407 12.8906 8.46191 13.1082 8.63758 13.2839C8.81326 13.4596 9.03094 13.5474 9.29064 13.5474H12.0403V14.464H8.37407V16.2971H10.2072V17.2137ZM5.62438 20.8799C5.12028 20.8799 4.68873 20.7004 4.32974 20.3414C3.97075 19.9825 3.79126 19.5509 3.79126 19.0468V4.3818C3.79126 3.87769 3.97075 3.44614 4.32974 3.08716C4.68873 2.72817 5.12028 2.54868 5.62438 2.54868H12.9569L18.4563 8.04805V19.0468C18.4563 19.5509 18.2768 19.9825 17.9178 20.3414C17.5588 20.7004 17.1272 20.8799 16.6231 20.8799H5.62438ZM5.62438 19.0468H16.6231V8.82713L12.1778 4.3818H5.62438V19.0468Z" fill="#10B981"/>
</g>
</svg>
