<svg width="23" height="22" viewBox="0 0 23 22" fill="none" xmlns="http://www.w3.org/2000/svg">
<g id="domain_24dp_5F6368_FILL0_wght400_GRAD0_opsz24 1">
<path id="Vector" d="M2.45837 19.25V2.75H11.625V6.41667H20.7917V19.25H2.45837ZM4.29171 17.4167H6.12504V15.5833H4.29171V17.4167ZM4.29171 13.75H6.12504V11.9167H4.29171V13.75ZM4.29171 10.0833H6.12504V8.25H4.29171V10.0833ZM4.29171 6.41667H6.12504V4.58333H4.29171V6.41667ZM7.95837 17.4167H9.79171V15.5833H7.95837V17.4167ZM7.95837 13.75H9.79171V11.9167H7.95837V13.75ZM7.95837 10.0833H9.79171V8.25H7.95837V10.0833ZM7.95837 6.41667H9.79171V4.58333H7.95837V6.41667ZM11.625 17.4167H18.9584V8.25H11.625V10.0833H13.4584V11.9167H11.625V13.75H13.4584V15.5833H11.625V17.4167ZM15.2917 11.9167V10.0833H17.125V11.9167H15.2917ZM15.2917 15.5833V13.75H17.125V15.5833H15.2917Z" fill="#299CDB"/>
</g>
</svg>
