<svg width="20" height="20" viewBox="0 0 20 20" fill="none" xmlns="http://www.w3.org/2000/svg">
<g id="apps_24dp_5F6368_FILL0_wght400_GRAD0_opsz24 1">
<path id="Vector" d="M5.00016 16.6667C4.54183 16.6667 4.14947 16.5035 3.82308 16.1771C3.49669 15.8507 3.3335 15.4583 3.3335 15C3.3335 14.5417 3.49669 14.1493 3.82308 13.8229C4.14947 13.4965 4.54183 13.3333 5.00016 13.3333C5.4585 13.3333 5.85086 13.4965 6.17725 13.8229C6.50363 14.1493 6.66683 14.5417 6.66683 15C6.66683 15.4583 6.50363 15.8507 6.17725 16.1771C5.85086 16.5035 5.4585 16.6667 5.00016 16.6667ZM10.0002 16.6667C9.54183 16.6667 9.14947 16.5035 8.82308 16.1771C8.49669 15.8507 8.3335 15.4583 8.3335 15C8.3335 14.5417 8.49669 14.1493 8.82308 13.8229C9.14947 13.4965 9.54183 13.3333 10.0002 13.3333C10.4585 13.3333 10.8509 13.4965 11.1772 13.8229C11.5036 14.1493 11.6668 14.5417 11.6668 15C11.6668 15.4583 11.5036 15.8507 11.1772 16.1771C10.8509 16.5035 10.4585 16.6667 10.0002 16.6667ZM15.0002 16.6667C14.5418 16.6667 14.1495 16.5035 13.8231 16.1771C13.4967 15.8507 13.3335 15.4583 13.3335 15C13.3335 14.5417 13.4967 14.1493 13.8231 13.8229C14.1495 13.4965 14.5418 13.3333 15.0002 13.3333C15.4585 13.3333 15.8509 13.4965 16.1772 13.8229C16.5036 14.1493 16.6668 14.5417 16.6668 15C16.6668 15.4583 16.5036 15.8507 16.1772 16.1771C15.8509 16.5035 15.4585 16.6667 15.0002 16.6667ZM5.00016 11.6667C4.54183 11.6667 4.14947 11.5035 3.82308 11.1771C3.49669 10.8507 3.3335 10.4583 3.3335 10C3.3335 9.54168 3.49669 9.14932 3.82308 8.82293C4.14947 8.49654 4.54183 8.33334 5.00016 8.33334C5.4585 8.33334 5.85086 8.49654 6.17725 8.82293C6.50363 9.14932 6.66683 9.54168 6.66683 10C6.66683 10.4583 6.50363 10.8507 6.17725 11.1771C5.85086 11.5035 5.4585 11.6667 5.00016 11.6667ZM10.0002 11.6667C9.54183 11.6667 9.14947 11.5035 8.82308 11.1771C8.49669 10.8507 8.3335 10.4583 8.3335 10C8.3335 9.54168 8.49669 9.14932 8.82308 8.82293C9.14947 8.49654 9.54183 8.33334 10.0002 8.33334C10.4585 8.33334 10.8509 8.49654 11.1772 8.82293C11.5036 9.14932 11.6668 9.54168 11.6668 10C11.6668 10.4583 11.5036 10.8507 11.1772 11.1771C10.8509 11.5035 10.4585 11.6667 10.0002 11.6667ZM15.0002 11.6667C14.5418 11.6667 14.1495 11.5035 13.8231 11.1771C13.4967 10.8507 13.3335 10.4583 13.3335 10C13.3335 9.54168 13.4967 9.14932 13.8231 8.82293C14.1495 8.49654 14.5418 8.33334 15.0002 8.33334C15.4585 8.33334 15.8509 8.49654 16.1772 8.82293C16.5036 9.14932 16.6668 9.54168 16.6668 10C16.6668 10.4583 16.5036 10.8507 16.1772 11.1771C15.8509 11.5035 15.4585 11.6667 15.0002 11.6667ZM5.00016 6.66668C4.54183 6.66668 4.14947 6.50348 3.82308 6.17709C3.49669 5.8507 3.3335 5.45834 3.3335 5.00001C3.3335 4.54168 3.49669 4.14932 3.82308 3.82293C4.14947 3.49654 4.54183 3.33334 5.00016 3.33334C5.4585 3.33334 5.85086 3.49654 6.17725 3.82293C6.50363 4.14932 6.66683 4.54168 6.66683 5.00001C6.66683 5.45834 6.50363 5.8507 6.17725 6.17709C5.85086 6.50348 5.4585 6.66668 5.00016 6.66668ZM10.0002 6.66668C9.54183 6.66668 9.14947 6.50348 8.82308 6.17709C8.49669 5.8507 8.3335 5.45834 8.3335 5.00001C8.3335 4.54168 8.49669 4.14932 8.82308 3.82293C9.14947 3.49654 9.54183 3.33334 10.0002 3.33334C10.4585 3.33334 10.8509 3.49654 11.1772 3.82293C11.5036 4.14932 11.6668 4.54168 11.6668 5.00001C11.6668 5.45834 11.5036 5.8507 11.1772 6.17709C10.8509 6.50348 10.4585 6.66668 10.0002 6.66668ZM15.0002 6.66668C14.5418 6.66668 14.1495 6.50348 13.8231 6.17709C13.4967 5.8507 13.3335 5.45834 13.3335 5.00001C13.3335 4.54168 13.4967 4.14932 13.8231 3.82293C14.1495 3.49654 14.5418 3.33334 15.0002 3.33334C15.4585 3.33334 15.8509 3.49654 16.1772 3.82293C16.5036 4.14932 16.6668 4.54168 16.6668 5.00001C16.6668 5.45834 16.5036 5.8507 16.1772 6.17709C15.8509 6.50348 15.4585 6.66668 15.0002 6.66668Z" fill="white"/>
</g>
</svg>
