<svg width="43" height="42" viewBox="0 0 43 42" fill="none" xmlns="http://www.w3.org/2000/svg">
<g id="jira">
<path id="vector" d="M41.8305 19.8247L23.1446 1.75185L21.3334 0L7.2674 13.6045L0.836264 19.8247C0.165744 20.474 0.165744 21.526 0.836264 22.1753L13.6871 34.6045L21.3334 42L35.3993 28.3955L35.6172 28.1848L41.8305 22.1753C42.501 21.526 42.501 20.474 41.8305 19.8247ZM21.3334 27.2091L14.9137 21L21.3334 14.7909L27.7531 21L21.3334 27.2091Z" fill="#2684FF"/>
<path id="vector_2" fill-rule="evenodd" clip-rule="evenodd" d="M21.3334 14.7909C17.1303 10.7252 17.1098 4.14001 21.2875 0.0498962L7.23877 13.6323L14.8851 21.0277L21.3334 14.7909Z" fill="url(#paint0_linear_789_79)"/>
<path id="vector_3" fill-rule="evenodd" clip-rule="evenodd" d="M27.7702 20.9833L21.3334 27.209C23.3621 29.17 24.5019 31.8304 24.5019 34.6045C24.5019 37.3786 23.3621 40.039 21.3334 42L35.4165 28.3788L27.7702 20.9833Z" fill="url(#paint1_linear_789_79)"/>
</g>
<defs>
<linearGradient id="paint0_linear_789_79" x1="20.187" y1="8.50977" x2="9.47818" y2="13.1854" gradientUnits="userSpaceOnUse">
<stop offset="0.18" stop-color="#0052CC"/>
<stop offset="1" stop-color="#2684FF"/>
</linearGradient>
<linearGradient id="paint1_linear_789_79" x1="22.56" y1="33.4181" x2="33.2496" y2="28.7757" gradientUnits="userSpaceOnUse">
<stop offset="0.18" stop-color="#0052CC"/>
<stop offset="1" stop-color="#2684FF"/>
</linearGradient>
</defs>
</svg>
