<svg width="22" height="22" viewBox="0 0 22 22" fill="none" xmlns="http://www.w3.org/2000/svg">
<g id="manage_accounts_24dp_5F6368_FILL0_wght400_GRAD0_opsz24 1">
<path id="Vector" d="M9.16671 11C8.15837 11 7.29518 10.641 6.57712 9.92293C5.85907 9.20488 5.50004 8.34168 5.50004 7.33335C5.50004 6.32502 5.85907 5.46182 6.57712 4.74377C7.29518 4.02571 8.15837 3.66668 9.16671 3.66668C10.175 3.66668 11.0382 4.02571 11.7563 4.74377C12.4743 5.46182 12.8334 6.32502 12.8334 7.33335C12.8334 8.34168 12.4743 9.20488 11.7563 9.92293C11.0382 10.641 10.175 11 9.16671 11ZM1.83337 18.3333V15.7667C1.83337 15.2625 1.96324 14.7889 2.22296 14.3458C2.48268 13.9028 2.84171 13.5667 3.30004 13.3375C4.07921 12.9403 4.95768 12.6042 5.93546 12.3292C6.91324 12.0542 7.99032 11.9167 9.16671 11.9167H9.48754C9.57921 11.9167 9.67087 11.932 9.76254 11.9625C9.64032 12.2375 9.53719 12.524 9.45317 12.8219C9.36914 13.1198 9.30421 13.4292 9.25837 13.75H9.16671C8.08199 13.75 7.10803 13.8875 6.24483 14.1625C5.38164 14.4375 4.67504 14.7125 4.12504 14.9875C3.98754 15.0639 3.87678 15.1708 3.79275 15.3083C3.70872 15.4458 3.66671 15.5986 3.66671 15.7667V16.5H9.44171C9.53337 16.8208 9.6556 17.1379 9.80837 17.4511C9.96115 17.7643 10.1292 18.0583 10.3125 18.3333H1.83337ZM14.6667 19.25L14.3917 17.875C14.2084 17.7986 14.0365 17.7184 13.8761 17.6344C13.7157 17.5504 13.5514 17.4472 13.3834 17.325L12.0542 17.7375L11.1375 16.1792L12.1917 15.2625C12.1612 15.0486 12.1459 14.85 12.1459 14.6667C12.1459 14.4833 12.1612 14.2847 12.1917 14.0708L11.1375 13.1542L12.0542 11.5958L13.3834 12.0083C13.5514 11.8861 13.7157 11.783 13.8761 11.699C14.0365 11.6149 14.2084 11.5347 14.3917 11.4583L14.6667 10.0833H16.5L16.775 11.4583C16.9584 11.5347 17.1302 11.6188 17.2907 11.7104C17.4511 11.8021 17.6153 11.9167 17.7834 12.0542L19.1125 11.5958L20.0292 13.2L18.975 14.1167C19.0056 14.3 19.0209 14.491 19.0209 14.6896C19.0209 14.8882 19.0056 15.0792 18.975 15.2625L20.0292 16.1792L19.1125 17.7375L17.7834 17.325C17.6153 17.4472 17.4511 17.5504 17.2907 17.6344C17.1302 17.7184 16.9584 17.7986 16.775 17.875L16.5 19.25H14.6667ZM15.5834 16.5C16.0875 16.5 16.5191 16.3205 16.8782 15.9615C17.2372 15.6024 17.4167 15.1708 17.4167 14.6667C17.4167 14.1625 17.2372 13.7309 16.8782 13.3719C16.5191 13.0129 16.0875 12.8333 15.5834 12.8333C15.0792 12.8333 14.6476 13.0129 14.2886 13.3719C13.9296 13.7309 13.75 14.1625 13.75 14.6667C13.75 15.1708 13.9296 15.6024 14.2886 15.9615C14.6476 16.3205 15.0792 16.5 15.5834 16.5ZM9.16671 9.16668C9.67087 9.16668 10.1025 8.98717 10.4615 8.62814C10.8205 8.26911 11 7.83752 11 7.33335C11 6.82918 10.8205 6.39759 10.4615 6.03856C10.1025 5.67953 9.67087 5.50002 9.16671 5.50002C8.66254 5.50002 8.23094 5.67953 7.87192 6.03856C7.51289 6.39759 7.33337 6.82918 7.33337 7.33335C7.33337 7.83752 7.51289 8.26911 7.87192 8.62814C8.23094 8.98717 8.66254 9.16668 9.16671 9.16668Z" fill="#FCD34D"/>
</g>
</svg>
