<svg width="22" height="23" viewBox="0 0 22 23" fill="none" xmlns="http://www.w3.org/2000/svg">
<g id="print_24dp_5F6368_FILL0_wght400_GRAD0_opsz24">
<path id="Vector" d="M14.6667 8.04762V5.29762H7.33337V8.04762H5.50004V3.46429H16.5V8.04762H14.6667ZM16.5 12.1726C16.7598 12.1726 16.9775 12.0848 17.1532 11.9091C17.3289 11.7334 17.4167 11.5157 17.4167 11.256C17.4167 10.9962 17.3289 10.7785 17.1532 10.6028C16.9775 10.4271 16.7598 10.3393 16.5 10.3393C16.2403 10.3393 16.0226 10.4271 15.8469 10.6028C15.6712 10.7785 15.5834 10.9962 15.5834 11.256C15.5834 11.5157 15.6712 11.7334 15.8469 11.9091C16.0226 12.0848 16.2403 12.1726 16.5 12.1726ZM14.6667 18.131V14.4643H7.33337V18.131H14.6667ZM16.5 19.9643H5.50004V16.2976H1.83337V10.7976C1.83337 10.0185 2.10074 9.36533 2.63546 8.83825C3.17018 8.31117 3.81949 8.04762 4.58337 8.04762H17.4167C18.1959 8.04762 18.849 8.31117 19.3761 8.83825C19.9032 9.36533 20.1667 10.0185 20.1667 10.7976V16.2976H16.5V19.9643ZM18.3334 14.4643V10.7976C18.3334 10.5379 18.2455 10.3202 18.0698 10.1445C17.8941 9.9688 17.6764 9.88096 17.4167 9.88096H4.58337C4.32365 9.88096 4.10594 9.9688 3.93025 10.1445C3.75455 10.3202 3.66671 10.5379 3.66671 10.7976V14.4643H5.50004V12.631H16.5V14.4643H18.3334Z" fill="#ABEFC6"/>
</g>
</svg>
