<svg width="45" height="40" viewBox="0 0 45 40" fill="none" xmlns="http://www.w3.org/2000/svg">
<g id="Layer_1" clip-path="url(#clip0_734_5291)">
<path id="Vector" fill-rule="evenodd" clip-rule="evenodd" d="M14.8687 8.87776L16.651 5.72973C15.5933 3.86148 14.538 1.99085 13.4803 0.120209H0C4.19794 7.53817 8.39353 14.949 12.5891 22.3645C16.189 16.0039 19.7889 9.64324 23.3912 3.28259H39.6482C33.9306 13.3821 28.22 23.4745 22.5023 33.5764C21.4447 31.7082 20.387 29.8447 19.3269 27.9741C22.9292 21.6086 26.5338 15.2432 30.136 8.87776H22.0122L20.2228 12.0401H24.7772C21.7706 17.3506 18.7664 22.6588 15.7622 27.9669C18.0089 31.9378 20.2533 35.9063 22.5 39.8772C30 26.6249 37.4977 13.3773 45 0.122601H21.6088C18.6023 5.4355 15.5933 10.7484 12.5844 16.0637C10.1735 11.8033 7.76266 7.54535 5.34944 3.28259H11.6956C12.7533 5.15084 13.8086 7.00951 14.8663 8.87776" fill="url(#paint0_linear_734_5291)"/>
</g>
<defs>
<linearGradient id="paint0_linear_734_5291" x1="0" y1="19.9987" x2="45" y2="19.9987" gradientUnits="userSpaceOnUse">
<stop stop-color="#06B6D4"/>
<stop offset="0.27" stop-color="#06B6D4"/>
<stop offset="0.84" stop-color="#4ADE80"/>
</linearGradient>
<clipPath id="clip0_734_5291">
<rect width="45" height="39.7546" fill="white" transform="translate(0 0.122681)"/>
</clipPath>
</defs>
</svg>
