<svg width="23" height="23" viewBox="0 0 23 23" fill="none" xmlns="http://www.w3.org/2000/svg">
<g id="upload_file_24dp_5F6368_FILL0_wght400_GRAD0_opsz24 1">
<path id="Vector" d="M10.7083 17.8452H12.5416V14.0182L14.0083 15.4848L15.2916 14.1786L11.625 10.5119L7.95829 14.1786L9.26454 15.4619L10.7083 14.0182V17.8452ZM6.12496 20.5952C5.62079 20.5952 5.1892 20.4157 4.83017 20.0567C4.47114 19.6977 4.29163 19.2661 4.29163 18.7619V4.09524C4.29163 3.59107 4.47114 3.15947 4.83017 2.80044C5.1892 2.44142 5.62079 2.2619 6.12496 2.2619H13.4583L18.9583 7.7619V18.7619C18.9583 19.2661 18.7788 19.6977 18.4198 20.0567C18.0607 20.4157 17.6291 20.5952 17.125 20.5952H6.12496ZM12.5416 8.67857V4.09524H6.12496V18.7619H17.125V8.67857H12.5416Z" fill="#4B38B3"/>
</g>
</svg>
